# xmcd CD database file
#
# Track frame offsets:
#	150
#	18997
#	39062
#	57852
#
# Disc length: 1035 seconds
#
# Revision: 0
# Processed by: cddbd v1.5.1PL2 Copyright (c) Steve Scherf et al.
# Submitted via: CDex 1.51
#
DISCID=22040904
DTITLE=ジュディ・オング - 言葉（ロゴス）〜カメリアダイアモンドＴＶ−ＣＦイメージソング〜
DYEAR=1995
DGENRE=JPop
TTITLE0=言葉（ロゴス）
TTITLE1=逢いたがり
TTITLE2=言葉（ロゴス）（オリジナル・カラオケ）
TTITLE3=逢いたがり（オリジナル・カラオケ）
EXTD=YEAR: 1995/6/2
EXTT0=
EXTT1=
EXTT2=
EXTT3=
PLAYORDER=
